<?xml version="1.0" standalone="no"?>
<!DOCTYPE svg PUBLIC "-//W3C//DTD SVG 20010904//EN"
 "http://www.w3.org/TR/2001/REC-SVG-20010904/DTD/svg10.dtd">
<svg version="1.0" xmlns="http://www.w3.org/2000/svg"
 width="4000.000000pt" height="4000.000000pt" viewBox="0 0 4000.000000 4000.000000"
 preserveAspectRatio="xMidYMid meet">

<g transform="translate(0.000000,4000.000000) scale(0.100000,-0.100000)"
fill="#000000" stroke="none">
<path d="M19940 32338 c-291 -187 -663 -400 -985 -563 -1006 -509 -1944 -778
-2980 -856 -204 -15 -752 -15 -960 0 -671 49 -1342 172 -2045 374 -85 25 -155
44 -156 44 -1 -1 -349 -720 -773 -1598 l-773 -1597 65 -93 c241 -349 494 -866
651 -1327 294 -861 376 -1730 240 -2537 -81 -480 -194 -878 -609 -2136 -388
-1174 -546 -1727 -671 -2344 -104 -516 -143 -851 -151 -1308 -12 -693 66
-1124 317 -1752 235 -589 506 -1044 916 -1536 156 -188 583 -617 794 -799
1339 -1154 3486 -2343 6908 -3824 l312 -135 313 135 c3441 1490 5618 2697
6937 3849 199 174 617 597 765 775 409 491 689 962 919 1543 158 400 236 688
287 1067 26 197 37 726 20 960 -55 736 -223 1511 -562 2588 -44 140 -158 492
-254 781 -415 1260 -528 1656 -609 2136 -134 796 -56 1647 228 2500 161 482
417 1009 664 1364 l65 94 -35 71 c-19 39 -367 757 -773 1596 -406 839 -738
1526 -739 1527 -1 0 -71 -19 -156 -44 -665 -191 -1325 -316 -1960 -369 -250
-22 -868 -25 -1095 -6 -972 80 -1841 325 -2792 787 -315 153 -656 342 -975
540 -68 43 -130 78 -139 80 -9 2 -39 19 -66 39 l-49 35 -94 -61z m223 -748
l152 -111 21 27 22 26 238 -127 c1195 -642 2313 -978 3509 -1055 205 -13 724
-13 930 0 538 35 1070 115 1650 249 138 32 253 55 257 52 10 -9 1191 -2455
1191 -2466 0 -5 -31 -62 -68 -125 -392 -667 -682 -1482 -799 -2240 -43 -282
-57 -445 -63 -746 -12 -596 53 -1055 247 -1764 82 -297 165 -561 419 -1337
252 -767 312 -955 410 -1288 376 -1281 494 -2205 382 -2980 -30 -201 -66 -351
-141 -576 -226 -681 -502 -1181 -933 -1692 -204 -242 -561 -587 -867 -838
-1263 -1036 -3307 -2155 -6432 -3520 l-248 -108 -247 108 c-3056 1333 -5106
2450 -6373 3472 -443 357 -839 755 -1115 1119 -90 119 -261 379 -334 507 -82
146 -213 424 -284 603 -222 561 -291 881 -304 1406 -13 565 68 1163 262 1929
118 465 229 832 513 1695 462 1405 576 1812 661 2345 73 461 80 1007 20 1485
-103 823 -385 1658 -805 2385 -47 83 -86 155 -87 160 0 6 231 487 513 1070
282 583 550 1137 596 1231 l82 172 163 -39 c854 -204 1579 -289 2334 -276 830
15 1543 136 2325 396 629 210 1338 539 1935 899 55 33 103 61 108 61 4 1 76
-49 160 -109z"/>
<path d="M19941 28014 l-151 -115 0 -82 0 -82 102 -102 102 -102 4 -90 c6
-121 -14 -358 -39 -461 -25 -105 -72 -194 -118 -226 -20 -13 -41 -24 -48 -24
-10 0 -13 -47 -15 -192 l-3 -192 -35 -20 c-31 -18 -51 -21 -165 -20 -124 0
-135 2 -245 39 -65 22 -204 84 -319 143 -333 169 -481 208 -756 199 -323 -11
-588 -103 -1120 -387 -361 -193 -545 -271 -755 -319 -320 -74 -687 -43 -1177
100 -58 17 -109 27 -113 22 -9 -10 -80 -199 -80 -213 0 -13 102 -64 230 -116
58 -23 104 -46 103 -52 -1 -5 -629 -1382 -1394 -3058 -766 -1677 -1394 -3062
-1396 -3079 -7 -52 44 -224 101 -340 127 -259 323 -469 626 -670 742 -492
1886 -689 2960 -509 583 98 1118 312 1493 596 111 84 286 256 358 351 118 157
201 332 234 492 l16 80 -1386 3039 c-763 1671 -1385 3039 -1383 3041 2 2 44
-5 93 -15 169 -34 280 -44 490 -44 363 -1 589 45 1008 203 560 211 971 292
1342 262 429 -34 737 -168 1088 -475 l69 -60 -6 -60 c-3 -34 -8 -95 -12 -136
l-6 -75 46 -18 c92 -38 131 -114 124 -247 -4 -73 -5 -76 -47 -120 -55 -58
-118 -153 -132 -201 -9 -27 -9 -124 0 -371 22 -638 55 -1924 95 -3673 32
-1362 43 -3294 20 -3381 -18 -72 -45 -110 -89 -125 l-35 -13 0 -333 0 -332
-782 -3 -783 -3 -80 -27 c-135 -46 -194 -88 -386 -275 l-176 -173 -254 0
c-289 0 -335 -7 -464 -70 -213 -103 -353 -305 -378 -547 l-6 -53 3791 0 3791
0 -7 66 c-29 279 -234 513 -512 584 -67 17 -111 20 -328 20 l-251 0 -188 180
c-171 164 -196 183 -280 225 -154 76 -135 75 -984 75 l-753 0 0 335 0 335 -22
0 c-29 0 -91 68 -106 117 -15 50 -16 1230 -2 2303 11 839 67 3197 106 4435 24
746 25 678 -13 755 -18 36 -59 95 -92 131 -57 63 -60 69 -67 131 -13 124 43
231 133 258 l38 12 -9 134 -9 135 39 40 c158 164 450 343 682 418 495 162
1039 104 1810 -193 285 -110 505 -163 777 -187 220 -19 509 0 714 47 35 8 65
13 66 12 2 -2 -620 -1368 -1381 -3036 -773 -1695 -1384 -3046 -1384 -3061 0
-41 35 -170 70 -258 152 -382 563 -746 1105 -980 724 -313 1651 -411 2510
-267 830 139 1524 499 1874 973 109 148 217 401 223 525 2 35 -187 455 -1395
3099 -768 1682 -1397 3061 -1397 3065 0 4 35 20 78 36 123 45 264 116 259 129
-2 7 -21 58 -42 115 -34 91 -41 103 -59 99 -12 -3 -78 -21 -148 -40 -162 -46
-324 -82 -463 -104 -154 -24 -457 -24 -580 0 -216 42 -401 112 -665 249 -96
50 -247 128 -336 174 -399 207 -662 290 -954 301 -269 9 -430 -32 -738 -189
-314 -161 -446 -203 -614 -196 -57 2 -108 10 -130 20 l-38 17 0 194 0 195 -25
6 c-41 10 -91 62 -118 124 -55 122 -77 267 -77 511 l0 153 100 105 100 105 0
86 -1 87 -149 113 c-82 61 -153 112 -158 112 -5 0 -77 -52 -161 -116z m-4581
-5554 l0 -2870 -1316 0 c-1049 0 -1315 3 -1311 13 5 13 2514 5498 2579 5640
23 48 42 87 44 87 2 0 4 -1291 4 -2870z m10805 1 c718 -1569 1305 -2857 1305
-2862 0 -5 -530 -8 -1312 -7 l-1313 3 -3 2870 c-1 1919 1 2866 8 2859 6 -6
597 -1294 1315 -2863z m-9316 -3 c715 -1565 1301 -2851 1301 -2857 0 -8 -367
-10 -1307 -9 l-1308 3 -3 2865 c-1 1585 2 2860 7 2855 4 -6 594 -1291 1310
-2857z m7821 -3 l0 -2865 -1311 0 c-1245 0 -1311 1 -1305 18 12 31 2611 5712
2614 5712 1 0 2 -1289 2 -2865z"/>
</g>
</svg>
